Poster: 
http://imgr.us/images/17fpwpu9marhodzz4f.jpg

Info:

Format : AVI
Format/Info : Audio Video Interleave
File size : 1.45 GiB
Duration : 1h 26mn
Overall bit rate : 2 402 Kbps
Writing application : VirtualDubMod 1.5.10.2 (build 2540/release)
Writing library : VirtualDubMod build 2540/release

Video
ID : 0
Format : MPEG-4 Visual
Format profile : Advanced Simple@L5
Format settings, BVOP : 2
Format settings, QPel : No
Format settings, GMC : No warppoints
Format settings, Matrix : Default (H.263)
Muxing mode : Packed bitstream
Codec ID : XVID
Codec ID/Hint : XviD
Duration : 1h 26mn
Bit rate : 1 945 Kbps
Width : 720 pixels
Height : 304 pixels
Display aspect ratio : 5:4
Original display aspect ratio : 2.35:1
Frame rate : 25.000 fps
Color space : YUV
Chroma subsampling : 4:2:0
Bit depth : 8 bits
Scan type : Progressive
Compression mode : Lossy
Bits/(Pixel*Frame) : 0.355
Stream size : 1.18 GiB (81%)
Writing library : XviD 64

Audio
ID : 1
Format : AC-3
Format/Info : Audio Coding 3
Mode extension : CM (complete main)
Format settings, Endianness : Big
Codec ID : 2000
Duration : 1h 26mn
Bit rate mode : Constant
Bit rate : 448 Kbps
Channel(s) : 6 channels
Channel positions : Front: L C R, Side: L R, LFE
Sampling rate : 48.0 KHz
Bit depth : 16 bits
Compression mode : Lossy
Stream size : 278 MiB (19%)
Alignment : Aligned on interleaves
Interleave, duration : 40 ms (1.00 video frame)
Interleave, preload duration : 512 ms
 
http://www.imdb.com/title/tt1525366/

Ratings: 6.3/10 from 1,160 users
Reviews: 13 user | 82 critic
When an island off the coast of Ireland is invaded by bloodsucking aliens, the heroes discover that getting drunk is the only way to survive.

Director: Jon Wright
Writer: Kevin Lehane
Stars: Richard Coyle, Ruth Bradley and Russell Tovey | See full cast and crew

Source Used

RETAiL DVDR.....thehead and elvis......Thanks
Enjoy

Screens:
 
http://imgr.us/images/9uz9nrzcqrq7s612xm32.jpg 
http://imgr.us/images/6gqjsqug69773vu393k3.jpg 
http://imgr.us/images/q9u4ltl6vm21iw55oom4.jpg 
http://imgr.us/images/q35sktvn0lf9d3be8.jpg 
http://imgr.us/images/rwpr3a226nadwdiobx0.jpg